<svg id="Layer_1" enable-background="new 0 0 500 500" height="512" viewBox="0 0 500 500" width="512" xmlns="http://www.w3.org/2000/svg"><path d="m250 84c0-36.45 29.55-66 66-66 39.696 0 70.312 34.768 65.52 74 47.144.012 80.1 46.618 64.72 90.93 26.79 10.49 45.76 36.57 45.76 67.07 0 30.74-19.27 56.98-46.39 67.31 16.821 44.541-16.048 92.538-63.88 92.69 3.527 38.597-26.872 72-65.73 72-36.45 0-66-29.55-66-66 0 36.45-29.55 66-66 66-38.839 0-69.259-33.382-65.73-72-47.923-.152-80.678-48.211-63.88-92.69-27.12-10.33-46.39-36.57-46.39-67.31 0-30.5 18.97-56.58 45.76-67.07-15.398-44.364 17.623-90.918 64.72-90.93-4.8-39.296 25.891-74 65.52-74 36.45 0 66 29.55 66 66z" fill="#d1e7ff"/><path d="m199.473 69.437c-19.416 8.938-34.189 27.082-37.806 49.231-1.686 10.328-9.239 18.588-19.299 21.465-31.195 8.923-52.149 39.266-49.337 71.668.831 9.576-3.228 18.979-11.136 24.443-9.872 6.82-17.71 15.904-23.045 26.257-12.817 24.873-50.85 17.036-50.85-12.501 0-30.5 18.97-56.58 45.76-67.07-15.398-44.364 17.623-90.918 64.72-90.93-5.153-42.185 30.506-78.542 73.255-73.552 26.803 3.129 32.251 39.705 7.738 50.989z" fill="#e8f3ff"/><g fill="#b9dcff"><path d="m90.46 169c0 4.42-3.58 8-8 8-9.715 0-19.151 1.879-28.06 5.59-.02-.76-.17-1.52-.43-2.28-1.52-4.38-2.57-8.91-3.13-13.52 10.1-3.85 20.73-5.79 31.62-5.79 4.42 0 8 3.58 8 8z"/><path d="m122.78 329.37c-23.254 11.821-49.574 12.371-71.98 3.83-.09-.04-.19-.07-.28-.11.66-5.46 1.97-10.72 3.84-15.7 18.56 7.838 41.294 7.807 61.16-2.28 3.94-2.01 8.76-.44 10.76 3.5s.43 8.75-3.5 10.76z"/><path d="m184.77 398.22c-18.05 18.8-42.19 28-66.06 27.46-.78-5.21-.9-10.54-.45-15.6 19.66.71 39.62-6.96 54.97-22.94 3.06-3.19 8.12-3.3 11.31-.24s3.29 8.13.23 11.32z"/><path d="m159.69 97.42c-2.14 3.86-7.01 5.26-10.88 3.12-9.08-5.03-19.66-8.08-30.33-8.54-.62-5.08-.65-10.5-.03-15.73 13.35.29 26.48 3.83 38.12 10.27 3.86 2.14 5.26 7.01 3.12 10.88z"/><path d="m409.54 169c0 4.42 3.58 8 8 8 9.715 0 19.151 1.879 28.06 5.59.02-.76.17-1.52.43-2.28 1.52-4.38 2.57-8.91 3.13-13.52-10.1-3.85-20.73-5.79-31.62-5.79-4.42 0-8 3.58-8 8z"/><path d="m377.22 329.37c23.254 11.821 49.574 12.371 71.98 3.83.09-.04.19-.07.28-.11-.66-5.46-1.97-10.72-3.84-15.7-18.56 7.838-41.294 7.807-61.16-2.28-3.94-2.01-8.76-.44-10.76 3.5s-.43 8.75 3.5 10.76z"/><path d="m315.23 398.22c18.05 18.8 42.19 28 66.06 27.46.78-5.21.9-10.54.45-15.6-19.66.71-39.62-6.96-54.97-22.94-3.06-3.19-8.12-3.3-11.31-.24s-3.29 8.13-.23 11.32z"/><path d="m340.31 97.42c2.14 3.86 7.01 5.26 10.88 3.12 9.08-5.03 19.66-8.08 30.33-8.54.62-5.08.65-10.5.03-15.73-13.35.29-26.48 3.83-38.12 10.27-3.86 2.14-5.26 7.01-3.12 10.88z"/></g><path d="m315.14 291.14c0 13.26-10.74 24-24 24-17.27 0-62.963 0-82.28 0-13.26 0-24-10.74-24-24 0-17.27 0-62.963 0-82.28 0-13.26 10.74-24 24-24h82.28c13.26 0 24 10.74 24 24z" fill="#d1e7ff"/><path d="m291.239 214.86h-28.379c-26.51 0-48 21.49-48 48v28.379c0 19.249-28.974 20.383-29.968 1.16-.051-.981-.032-84.522-.032-83.54 0-13.255 10.745-24 24-24h82.28c20.686.001 19.613 30.001.099 30.001z" fill="#e8f3ff"/><path d="m317.689 46.465c-19.185 1.416-36.962 8.837-51.79 21.086-5.688 4.699-13.891-1.386-11.131-8.228 9.872-24.472 33.994-41.675 62.087-41.318 18.158.231 18.944 27.123.834 28.46z" fill="#e8f3ff"/><path d="m500 250c0 59.625-63.249 98.299-116.234 71.341-3.938-2.004-5.506-6.82-3.502-10.758 2.003-3.937 6.817-5.507 10.758-3.502 42.421 21.584 92.978-9.425 92.978-57.081 0-35.29-28.71-64-64-64-4.418 0-8-3.582-8-8s3.582-8 8-8c7.178 0 14.133.965 20.756 2.747 10.468-50.957-43.864-89.988-88.562-65.19-3.86 2.143-8.732.75-10.876-3.114s-.75-8.733 3.114-10.877c50.654-28.103 113.568 8.621 113.568 66.934 0 6.113-.73 12.144-2.149 18.015 26.154 13.171 44.149 40.258 44.149 71.485zm-176.857-41.143v6.857h17.857c4.418 0 8 3.582 8 8s-3.582 8-8 8h-17.857v36.571h17.857c4.418 0 8 3.582 8 8s-3.582 8-8 8h-17.857v6.857c0 17.645-14.355 32-32 32h-6.856v16.858c0 4.418-3.582 8-8 8s-8-3.582-8-8v-16.857h-36.572v16.857c0 4.418-3.582 8-8 8s-8-3.582-8-8v-16.857h-6.856c-17.645 0-32-14.355-32-32v-6.857h-17.859c-4.418 0-8-3.582-8-8s3.582-8 8-8h17.857v-36.571h-17.857c-4.418 0-8-3.582-8-8s3.582-8 8-8h17.857v-6.857c0-17.645 14.355-32 32-32h6.856v-16.858c0-4.418 3.582-8 8-8s8 3.582 8 8v16.857h36.572v-16.857c0-4.418 3.582-8 8-8s8 3.582 8 8v16.857h6.856c17.646 0 32.002 14.355 32.002 32zm-16 0c0-8.822-7.178-16-16-16h-82.285c-8.822 0-16 7.178-16 16v82.286c0 8.822 7.178 16 16 16h82.285c8.822 0 16-7.178 16-16zm-57.143 24c-4.418 0-8 3.582-8 8v18.286c0 4.418 3.582 8 8 8s8-3.582 8-8v-18.286c0-4.419-3.582-8-8-8zm130.438 199.588c-4.12-1.599-8.755.44-10.355 4.559-8.735 22.474-29.964 36.996-54.083 36.996-31.981 0-58-26.019-58-58v-31c0-4.418-3.582-8-8-8s-8 3.582-8 8v31c0 31.981-26.019 58-58 58-31.434 0-57.089-25.141-57.958-56.368 18.143-1.754 34.848-9.82 47.656-23.165 3.06-3.188 2.956-8.252-.231-11.312-3.19-3.06-8.254-2.956-11.312.232-11.491 11.973-26.948 18.577-43.533 18.609-.202-.009-.403-.015-.602-.009-38.628-.304-67.458-36.557-58.354-74.615 18.276 4.807 38.493 3.164 56.569-6.032 3.938-2.004 5.506-6.82 3.502-10.758-2.003-3.937-6.819-5.507-10.758-3.502-42.422 21.585-92.979-9.424-92.979-57.08 0-35.29 28.71-64 64-64 4.418 0 8-3.582 8-8s-3.582-8-8-8c-44.112 0-80 35.888-80 80 0 31.406 18.199 58.629 44.597 71.714-12.225 45.728 19.572 90.735 65.442 95.807.815 40.102 33.668 72.479 73.961 72.479 28.789 0 53.772-16.536 66-40.598 12.228 24.062 37.211 40.598 66 40.598 30.769 0 57.852-18.527 68.996-47.201 1.601-4.118-.44-8.754-4.558-10.354zm-329.364-276.039c3.803 0 7.176-2.723 7.866-6.598 9.04-50.743 73.256-67.15 105.949-28.147 2.839 3.387 7.886 3.83 11.27.992 3.387-2.838 3.831-7.884.992-11.27-12.965-15.467-31.295-25.064-51.14-27.009-.19-32.337 26.034-58.374 57.989-58.374 31.981 0 58 26.019 58 58v31c0 4.418 3.582 8 8 8s8-3.582 8-8v-31c0-31.981 26.019-58 58-58 23.979 0 45.164 14.409 53.971 36.709 1.621 4.109 6.268 6.125 10.379 4.502 4.109-1.623 6.125-6.27 4.502-10.379-23.476-59.455-106-63.01-134.852-6.235-12.228-24.061-37.211-40.597-66-40.597-40.833 0-74.242 33.3-73.993 74.485-33.379 3.686-60.817 28.831-66.819 62.516-.871 4.887 2.882 9.405 7.886 9.405zm399.363 183.268c-4.408-.387-8.285 2.86-8.677 7.261-4.464 50.225-63.785 72.122-100.258 39.958-3.313-2.922-8.369-2.605-11.291.708-2.923 3.314-2.605 8.369.709 11.292 47.227 41.652 121.286 11.243 126.777-50.542.391-4.401-2.859-8.286-7.26-8.677z" fill="#2e58ff"/></svg>