<svg width="273" height="269" viewBox="0 0 273 269" fill="none" xmlns="http://www.w3.org/2000/svg">
<rect x="42" y="1" width="230" height="230" fill="#F298B8"/>
<path d="M8.70712 0.292892C8.31659 -0.0976257 7.68343 -0.0976257 7.2929 0.292892L0.928942 6.65686C0.538418 7.04738 0.538418 7.68054 0.928942 8.07108C1.31947 8.46159 1.95263 8.46159 2.34316 8.07108L8.00001 2.41422L13.6569 8.07108C14.0474 8.46159 14.6806 8.46159 15.0711 8.07108C15.4616 7.68054 15.4616 7.04738 15.0711 6.65686L8.70712 0.292892ZM9 231L9.00001 1L7.00001 1L7 231L9 231Z" fill="#F298B8"/>
<path d="M272.707 261.707C273.098 261.317 273.098 260.683 272.707 260.293L266.343 253.929C265.953 253.538 265.319 253.538 264.929 253.929C264.538 254.319 264.538 254.953 264.929 255.343L270.586 261L264.929 266.657C264.538 267.047 264.538 267.681 264.929 268.071C265.319 268.462 265.953 268.462 266.343 268.071L272.707 261.707ZM42 262H272V260H42V262Z" fill="#F298B8"/>
</svg>
